<?xml version="1.0" encoding="utf-8"?>
<!-- Generator: Adobe Illustrator 25.2.1, SVG Export Plug-In . SVG Version: 6.00 Build 0)  -->
<svg version="1.1" id="Слой_1" xmlns="http://www.w3.org/2000/svg" xmlns:xlink="http://www.w3.org/1999/xlink" x="0px" y="0px"
	 viewBox="0 0 920 1185" style="enable-background:new 0 0 920 1185;" xml:space="preserve">
<style type="text/css">
	.st0{fill:#FD2017;}
</style>
<g>
	<path class="st0" d="M468,0c5.7,0.7,11.4,1.3,17.1,2c27,3.1,52.3,11.7,76.1,24.7c23.8,13,44.8,29.7,63.2,49.5
		c36,38.8,60,84.1,75.1,134.6c7,23.6,11.7,47.6,14.2,72c1.7,16.7,2.1,33.5,2.1,50.3c0.1,183.5,0.1,367,0.1,550.5c0,1.8,0,3.6,0,5.9
		c-22.8,0-45.4,0-68.7,0c0-1.9,0-3.8,0-5.7c0-187.7,0-375.3-0.1-563c0-35.8-6.7-70.5-19.6-104c-13.4-34.7-33-65.4-60.8-90.5
		c-24.7-22.3-53.2-37.1-86.5-41.5c-43.5-5.8-82,6.4-116.4,32.7c-25.4,19.4-44.3,44.2-59.1,72.2c-14.8,27.9-24.2,57.7-28.4,89
		c-2.2,16.1-3.2,32.4-3.2,48.7c-0.2,186.3-0.1,372.7-0.1,559c0,2.4,0.2,6.2,0.2,6.2s0.2,3.8,0.2,5.6c2,29.7,7.7,58.2,16.5,86.6
		c7.8,25.2,18.7,48.9,35,69.8c17.9,22.9,39.7,40.5,69.3,45.8c20.8,3.7,40.2-0.9,58.2-11.4c26.3-15.3,43.9-38.4,57.7-64.9
		c13.9-26.7,21.9-55.4,25.7-85.1c1.9-14.8,2.2-29.8,2.3-44.8c0.1-181.7,0.1-363.3,0-545c0-24.2-6.4-46.7-21-66.2
		c-14.3-19-32.8-30.9-57.5-30.2c-20.6,0.6-36.7,10.6-49.5,26c-17,20.5-24.2,44.4-24.2,70.9c0.1,180.8,0,361.7,0,542.5
		c0,2,0,3.9,0,6.3c-23,0-45.6,0-68.5,0c-0.1-1.6-0.3-3-0.3-4.4c0-181.2-0.1-362.3,0.1-543.5c0-33.2,6.3-65.2,21.5-95.2
		c17-33.6,40.7-60.3,75.8-75.7c23.4-10.3,47.6-12.7,72.5-7.3c23,5,42.9,16.1,60.3,32c29.5,27.1,46.7,61.2,54.5,100
		c2.5,12.6,3.6,25.6,4.2,38.5c0.8,17.4,0.9,34.9,0.9,52.4c0.1,163.7,0.1,327.3-0.1,491c0,21.2-0.7,42.6-3.1,63.7
		c-2.1,18.2-6.3,36.2-10.9,54c-8.6,33.1-22.3,64.2-41.3,92.7c-21.3,32-47.9,58.5-83.4,74.7c-15.4,7.1-31.6,11.8-48.8,12.6
		c-1.4,0.1-2.8,0.6-4.2,0.9c-4.7,0-9.3,0-14,0c-1.4-0.3-2.8-0.9-4.2-0.9c-18.1-0.9-35.2-5.9-51.4-13.7
		c-34.4-16.4-60.2-42.4-81.1-73.7c-18.2-27.2-32.3-56.5-41.4-87.8c-9.6-33.3-18.4-75-18.7-109.7l0,0c0-3.2,0-6.1,0-8.9
		c0-62-0.1-124,0-185.9c0.2-132.4,0.3-264.8,0.9-397.3c0.1-16,1.9-32.1,4.4-48c4.4-28.2,12-55.6,22.7-82.1
		c14.8-36.6,34.9-69.9,61.6-99c17.8-19.4,38-36.1,61-49.2c24.9-14.1,51.4-23.7,80-26.9c5.7-0.6,11.5-1.3,17.2-2
		C457.3,0,462.6,0,468,0z"/>
</g>
</svg>
